<?xml version="1.0" encoding="UTF-8"?>
<svg version="1.1" xmlns="http://www.w3.org/2000/svg" width="512" height="512">
<path d="M0 0 C0.92320038 0.00215515 1.84640076 0.0043103 2.7975769 0.00653076 C16.84184242 0.05905652 30.57195364 0.49622308 44.375 3.3125 C45.36097168 3.51117676 46.34694336 3.70985352 47.36279297 3.91455078 C102.86994137 15.46232125 155.79473459 45.67163499 190.375 91.3125 C190.78492188 91.84069336 191.19484375 92.36888672 191.6171875 92.91308594 C216.49420916 125.02137204 233.07587608 163.16577908 239.375 203.3125 C239.55828857 204.47096436 239.74157715 205.62942871 239.93041992 206.82299805 C241.52150888 218.01288024 241.73363899 229.08476368 241.6875 240.375 C241.68534485 241.32437439 241.6831897 242.27374878 241.68096924 243.25189209 C241.6292473 257.4568888 241.24045393 271.3533884 238.375 285.3125 C238.07698486 286.78928223 238.07698486 286.78928223 237.77294922 288.29589844 C230.2151719 324.62984214 215.50774267 359.12833485 192.375 388.3125 C191.41013672 389.56546875 191.41013672 389.56546875 190.42578125 390.84375 C185.1029524 397.66733587 179.32565622 404.0388936 173.375 410.3125 C172.90046387 410.81571777 172.42592773 411.31893555 171.93701172 411.83740234 C164.87356152 419.27903794 157.38259367 425.80807505 149.17382812 431.95800781 C147.39807817 433.29512246 145.64379577 434.65690877 143.890625 436.0234375 C133.67782614 443.87413071 122.72335338 450.24748079 111.375 456.3125 C110.61268066 456.72242188 109.85036133 457.13234375 109.06494141 457.5546875 C75.8149814 475.13461756 38.11523749 482.78251529 0.75 482.625 C-0.17320038 482.62284485 -1.09640076 482.6206897 -2.0475769 482.61846924 C-16.09184242 482.56594348 -29.82195364 482.12877692 -43.625 479.3125 C-45.10395752 479.01448486 -45.10395752 479.01448486 -46.61279297 478.71044922 C-82.94479745 471.15189756 -117.44229363 456.44408637 -146.625 433.3125 C-147.4603125 432.66925781 -148.295625 432.02601563 -149.15625 431.36328125 C-155.97983587 426.0404524 -162.3513936 420.26315622 -168.625 414.3125 C-169.12821777 413.83796387 -169.63143555 413.36342773 -170.14990234 412.87451172 C-177.59153794 405.81106152 -184.12057505 398.32009367 -190.27050781 390.11132812 C-191.60762246 388.33557817 -192.96940877 386.58129577 -194.3359375 384.828125 C-202.18663071 374.61532614 -208.55998079 363.66085338 -214.625 352.3125 C-215.23988281 351.169021 -215.23988281 351.169021 -215.8671875 350.00244141 C-227.36919119 328.24802252 -234.82004006 303.56764101 -238.625 279.3125 C-238.80756348 278.15693604 -238.99012695 277.00137207 -239.17822266 275.81079102 C-240.77855387 264.54078263 -241.02416633 253.3717251 -241 242 C-240.99945618 241.03405914 -240.99891235 240.06811829 -240.99835205 239.07290649 C-240.93621469 214.99418132 -237.58294263 192.40215191 -230.625 169.3125 C-230.25665039 168.0757251 -230.25665039 168.0757251 -229.88085938 166.81396484 C-221.40137516 139.00953473 -207.08159227 112.73508742 -188.625 90.3125 C-188.1825293 89.76851563 -187.74005859 89.22453125 -187.28417969 88.6640625 C-176.09707556 74.97779558 -163.73613036 62.00394139 -149.625 51.3125 C-149.09680664 50.90257812 -148.56861328 50.49265625 -148.02441406 50.0703125 C-105.45888825 17.09117731 -53.69950689 -0.22637333 0 0 Z " fill="#474F6F" transform="translate(255.625,14.6875)"/>
<path d="M0 0 C39.37514976 0 77.92857892 13.50794954 106.7421875 40.859375 C108.52871327 42.55317452 110.31752351 44.1073483 112.25 45.625 C133.74450285 64.18843428 147.84520869 93.01621564 155 120 C155.21172852 120.78761719 155.42345703 121.57523437 155.64160156 122.38671875 C161.40502722 144.78278804 160.7237087 169.46116137 156 192 C155.7834375 193.0828125 155.566875 194.165625 155.34375 195.28125 C146.45730869 234.63549009 121.14213871 271.18549688 87.02783203 292.73730469 C86.35864746 293.15399414 85.68946289 293.57068359 85 294 C84.35530762 294.40895508 83.71061523 294.81791016 83.04638672 295.23925781 C72.02462611 302.1435816 60.24321407 306.71969135 48 311 C47.23091309 311.27537598 46.46182617 311.55075195 45.66943359 311.83447266 C40.65812181 313.58190186 35.73404418 314.77046218 30.5 315.625 C29.80519531 315.74617188 29.11039063 315.86734375 28.39453125 315.9921875 C6.58859997 319.70040502 -16.60571081 319.85806701 -38 314 C-39.22154785 313.68651611 -39.22154785 313.68651611 -40.46777344 313.36669922 C-66.73764496 306.58327978 -92.3616201 293.03625839 -111 273 C-111.825 272.175 -112.65 271.35 -113.5 270.5 C-114.325 269.675 -115.15 268.85 -116 268 C-116.51771973 267.5062085 -117.03543945 267.01241699 -117.56884766 266.50366211 C-121.87399246 262.33965957 -125.46626787 257.97984581 -128.875 253.0625 C-129.38820801 252.32596191 -129.90141602 251.58942383 -130.43017578 250.83056641 C-138.63277752 238.87747491 -145.0730987 226.63157239 -150 213 C-150.45246094 211.78699219 -150.90492188 210.57398438 -151.37109375 209.32421875 C-157.20850517 192.92057302 -159 176.38757412 -159 159 C-141.84 159 -124.68 159 -107 159 C-107 155.37 -107 151.74 -107 148 C-103.24140589 117.98819556 -88.82999524 91.87963806 -65 73 C-50.95103341 63.35681765 -36.20690773 56.36439827 -19.4375 53.25 C-18.76565674 53.12214111 -18.09381348 52.99428223 -17.40161133 52.86254883 C-11.40288571 51.83763731 -6.31523798 52 0 52 C0 34.84 0 17.68 0 0 Z " fill="#474F6F" transform="translate(256,97)"/>
<path d="M0 0 C0.92320038 0.00215515 1.84640076 0.0043103 2.7975769 0.00653076 C16.84184242 0.05905652 30.57195364 0.49622308 44.375 3.3125 C45.36097168 3.51117676 46.34694336 3.70985352 47.36279297 3.91455078 C102.79827266 15.44741121 155.8922835 45.64788811 190.375 91.3125 C190.82746094 91.90981934 191.27992188 92.50713867 191.74609375 93.12255859 C193.23531428 95.09617082 194.71400594 97.07712215 196.1875 99.0625 C196.64423096 99.67681885 197.10096191 100.2911377 197.5715332 100.92407227 C200.4851173 104.9108274 202.99501379 108.98525235 205.375 113.3125 C195.20011572 129.29832271 183.44951749 143.61815353 170.375 157.3125 C169.74207031 157.98667969 169.10914063 158.66085938 168.45703125 159.35546875 C161.85085159 166.21271462 154.34467843 172.128113 146.375 177.3125 C146.09414551 176.77995605 145.81329102 176.24741211 145.52392578 175.69873047 C137.56861528 160.70143721 129.31043516 147.09116029 117.6015625 134.71484375 C115.375 132.3125 115.375 132.3125 113.30078125 129.703125 C110.3802223 126.07760354 106.95780487 123.26745 103.375 120.3125 C102.47007812 119.55839844 101.56515625 118.80429688 100.6328125 118.02734375 C71.14989408 94.35848685 37.64847449 85.29437796 0.375 82.3125 C0.375 99.4725 0.375 116.6325 0.375 134.3125 C-9.03 135.3025 -9.03 135.3025 -18.625 136.3125 C-29.10988963 138.50337246 -38.13504688 141.40221458 -47.625 146.3125 C-48.59308594 146.79847656 -49.56117188 147.28445312 -50.55859375 147.78515625 C-56.80068975 151.03173877 -62.26109919 154.76950923 -67.625 159.3125 C-68.43839844 159.99183594 -69.25179687 160.67117187 -70.08984375 161.37109375 C-95.00453389 182.90752082 -103.259628 209.34146596 -106.625 241.3125 C-123.785 241.3125 -140.945 241.3125 -158.625 241.3125 C-158.625 220.38020052 -158.625 220.38020052 -156.5 210.75 C-156.16983887 209.17182495 -156.16983887 209.17182495 -155.83300781 207.56176758 C-154.10404573 199.65423773 -151.7815636 192.08563718 -148.859375 184.54296875 C-147.93150938 182.1146622 -147.161059 179.84601695 -146.625 177.3125 C-147.82382813 176.31283203 -147.82382813 176.31283203 -149.046875 175.29296875 C-170.64791306 157.20475307 -190.13183323 137.7137226 -204.625 113.3125 C-190.27442829 89.87169476 -171.59088537 67.95517638 -149.625 51.3125 C-149.09680664 50.90257812 -148.56861328 50.49265625 -148.02441406 50.0703125 C-105.45888825 17.09117731 -53.69950689 -0.22637333 0 0 Z " fill="#535D79" transform="translate(255.625,14.6875)"/>
<path d="M0 0 C39.37514976 0 77.92857892 13.50794954 106.7421875 40.859375 C108.52871327 42.55317452 110.31752351 44.1073483 112.25 45.625 C133.74450285 64.18843428 147.84520869 93.01621564 155 120 C155.21172852 120.78761719 155.42345703 121.57523437 155.64160156 122.38671875 C161.40502722 144.78278804 160.7237087 169.46116137 156 192 C155.7834375 193.0828125 155.566875 194.165625 155.34375 195.28125 C146.45730869 234.63549009 121.14213871 271.18549688 87.02783203 292.73730469 C86.35864746 293.15399414 85.68946289 293.57068359 85 294 C84.35530762 294.40895508 83.71061523 294.81791016 83.04638672 295.23925781 C72.02462611 302.1435816 60.24321407 306.71969135 48 311 C47.23091309 311.27537598 46.46182617 311.55075195 45.66943359 311.83447266 C40.65812181 313.58190186 35.73404418 314.77046218 30.5 315.625 C29.80519531 315.74617188 29.11039063 315.86734375 28.39453125 315.9921875 C6.58859997 319.70040502 -16.60571081 319.85806701 -38 314 C-39.22154785 313.68651611 -39.22154785 313.68651611 -40.46777344 313.36669922 C-66.73764496 306.58327978 -92.3616201 293.03625839 -111 273 C-111.825 272.175 -112.65 271.35 -113.5 270.5 C-114.325 269.675 -115.15 268.85 -116 268 C-116.51771973 267.5062085 -117.03543945 267.01241699 -117.56884766 266.50366211 C-121.87399246 262.33965957 -125.46626787 257.97984581 -128.875 253.0625 C-129.38820801 252.32596191 -129.90141602 251.58942383 -130.43017578 250.83056641 C-138.63277752 238.87747491 -145.0730987 226.63157239 -150 213 C-150.45246094 211.78699219 -150.90492188 210.57398438 -151.37109375 209.32421875 C-157.20850517 192.92057302 -159 176.38757412 -159 159 C-141.84 159 -124.68 159 -107 159 C-106.34 165.27 -105.68 171.54 -105 178 C-104.22940959 181.69834313 -103.46925971 185.11213016 -102.375 188.6875 C-101.98803955 189.98856689 -101.98803955 189.98856689 -101.59326172 191.31591797 C-93.11081654 218.54481722 -73.90189239 240.48338881 -48.93212891 254.00683594 C-22.20972213 267.74284185 7.88713789 268.24967626 36.10351562 259.33544922 C62.50090276 250.62117824 83.50586874 230.53900805 96 206 C98.43493565 200.80912432 100.32813406 195.47964695 102 190 C102.31541748 188.97447021 102.31541748 188.97447021 102.63720703 187.92822266 C107.97318555 169.7909655 107.67857912 150.24848395 103 132 C102.59974609 130.36611328 102.59974609 130.36611328 102.19140625 128.69921875 C94.79025179 101.75901651 76.024648 79.67783641 52 66 C35.7439817 56.75391849 18.35981806 53.83598181 0 52 C0 34.84 0 17.68 0 0 Z " fill="#FCD010" transform="translate(256,97)"/>
<path d="M0 0 C31.02 0 62.04 0 94 0 C95.32 3.96 96.64 7.92 98 12 C102.30989716 16.83005717 105.039146 18.80045714 111.16162109 20.58764648 C112.06641205 20.85343002 112.971203 21.11921356 113.90341187 21.39305115 C114.59528595 21.59334427 115.28716003 21.79363739 116 22 C116.07706265 28.8094138 116.12901688 35.61871225 116.16479492 42.4284668 C116.17973498 44.73742881 116.20009442 47.04636319 116.22631836 49.35522461 C116.54371463 78.05158171 112.79110818 106.44774146 92.01049805 127.97851562 C90.67892841 129.32423856 89.33966736 130.66233813 88 132 C87.34515625 132.72574219 86.6903125 133.45148438 86.015625 134.19921875 C80.26362134 140.45513726 73.27162087 144.74228616 66 149 C65.27409668 149.42587402 64.54819336 149.85174805 63.80029297 150.29052734 C61.54684992 151.59418408 59.27819675 152.86516884 57 154.125 C56.29431885 154.52775146 55.5886377 154.93050293 54.86157227 155.34545898 C51.77507503 157.00215743 49.63938393 157.98793615 46.1015625 158.0546875 C41.5776352 156.51632431 37.53381086 154.33637101 33.375 152 C32.48997803 151.50814209 31.60495605 151.01628418 30.69311523 150.50952148 C23.6603904 146.52852785 17.2594728 142.12323138 11 137 C10.14019531 136.33097656 9.28039062 135.66195312 8.39453125 134.97265625 C-9.06751432 120.58712115 -19.16126861 96.8641536 -21.74420166 74.871521 C-22.60382383 65.22164168 -22.29824181 55.4888267 -22.1875 45.8125 C-22.17240882 43.49024316 -22.15872835 41.16797672 -22.14648438 38.84570312 C-22.11386988 33.23025428 -22.06403044 27.61517408 -22 22 C-20.87742798 21.61038086 -20.87742798 21.61038086 -19.73217773 21.21289062 C-18.74677002 20.86419922 -17.7613623 20.51550781 -16.74609375 20.15625 C-15.28320923 19.64288086 -15.28320923 19.64288086 -13.79077148 19.11914062 C-9.3281544 17.3295652 -7.21679009 15.67633153 -4 12 C-2.68 8.04 -1.36 4.08 0 0 Z " fill="#FEFEFD" transform="translate(209,188)"/>
<path d="M0 0 C0 17.16 0 34.32 0 52 C-9.405 52.99 -9.405 52.99 -19 54 C-29.48488963 56.19087246 -38.51004688 59.08971458 -48 64 C-48.96808594 64.48597656 -49.93617188 64.97195312 -50.93359375 65.47265625 C-57.17568975 68.71923877 -62.63609919 72.45700923 -68 77 C-68.81339844 77.67933594 -69.62679687 78.35867187 -70.46484375 79.05859375 C-95.37953389 100.59502082 -103.634628 127.02896596 -107 159 C-124.16 159 -141.32 159 -159 159 C-159 138.05082212 -159 138.05082212 -156.875 128.4375 C-156.6490918 127.37450684 -156.42318359 126.31151367 -156.19042969 125.21630859 C-150.27531631 98.46882943 -137.8661159 74.68708157 -120 54 C-119.32066406 53.19820312 -118.64132813 52.39640625 -117.94140625 51.5703125 C-113.63374919 46.58249907 -109.08248658 42.18834542 -104 38 C-103.26265625 37.37480469 -102.5253125 36.74960938 -101.765625 36.10546875 C-82.52733911 20.16786917 -59.33727773 8.80956394 -34.95996094 3.43798828 C-33.06374938 3.01424594 -31.17611556 2.55266834 -29.2890625 2.08984375 C-18.95950576 -0.27780518 -11.17938065 0 0 0 Z " fill="#0F9AE7" transform="translate(256,97)"/>
<path d="M0 0 C17.16 0 34.32 0 52 0 C52.66 6.27 53.32 12.54 54 19 C54.77059041 22.69834313 55.53074029 26.11213016 56.625 29.6875 C56.88297363 30.55487793 57.14094727 31.42225586 57.40673828 32.31591797 C65.88918346 59.54481722 85.09810761 81.48338881 110.06787109 95.00683594 C125.80739567 103.09735729 141.25858218 105.13248233 159 107 C159 124.16 159 141.32 159 159 C138.14484412 159 138.14484412 159 131.125 157.375 C130.30459229 157.19606201 129.48418457 157.01712402 128.63891602 156.83276367 C126.08295505 156.25587805 123.54126318 155.63837314 121 155 C119.75017334 154.68651611 119.75017334 154.68651611 118.47509766 154.36669922 C92.23311242 147.57339879 66.61979692 134.01628169 48 114 C47.175 113.175 46.35 112.35 45.5 111.5 C44.675 110.675 43.85 109.85 43 109 C42.48228027 108.5062085 41.96456055 108.01241699 41.43115234 107.50366211 C37.12600754 103.33965957 33.53373213 98.97984581 30.125 94.0625 C29.61179199 93.32596191 29.09858398 92.58942383 28.56982422 91.83056641 C20.36722248 79.87747491 13.9269013 67.63157239 9 54 C8.54753906 52.78699219 8.09507813 51.57398438 7.62890625 50.32421875 C1.79149483 33.92057302 0 17.38757412 0 0 Z " fill="#FEFEFE" transform="translate(97,256)"/>
<path d="M0 0 C17.16 0 34.32 0 52 0 C52 8.09241794 51.97948971 15.23233118 50.6875 23.0625 C50.54997314 23.92464111 50.41244629 24.78678223 50.27075195 25.67504883 C43.6482824 65.97404452 21.44651105 103.75512372 -11.58081055 128.14331055 C-14.98736988 130.53923228 -18.46508161 132.79886854 -22 135 C-22.64469238 135.40895508 -23.28938477 135.81791016 -23.95361328 136.23925781 C-34.97537389 143.1435816 -46.75678593 147.71969135 -59 152 C-59.76908691 152.27537598 -60.53817383 152.55075195 -61.33056641 152.83447266 C-66.34112708 154.58163995 -71.26588004 155.77412431 -76.5 156.625 C-77.24411133 156.74979736 -77.98822266 156.87459473 -78.75488281 157.00317383 C-80.83503078 157.34644836 -82.91662555 157.67695871 -85 158 C-85.87140625 158.13535156 -86.7428125 158.27070313 -87.640625 158.41015625 C-94.15622855 159.26683746 -100.31282903 159 -107 159 C-107 141.84 -107 124.68 -107 107 C-100.73 106.34 -94.46 105.68 -88 105 C-84.30165687 104.22940959 -80.88786984 103.46925971 -77.3125 102.375 C-76.44512207 102.11702637 -75.57774414 101.85905273 -74.68408203 101.59326172 C-47.55392141 93.14157595 -25.37325295 73.9339774 -11.98876953 48.95751953 C-7.62873869 40.32573502 -4.85476671 31.21133007 -2.6875 21.8125 C-2.52789795 21.12502686 -2.3682959 20.43755371 -2.20385742 19.72924805 C-0.79457228 13.08436353 -0.53404487 6.94258331 0 0 Z " fill="#FE3445" transform="translate(363,256)"/>
<path d="M0 0 C31.02 0 62.04 0 94 0 C95.32 3.96 96.64 7.92 98 12 C102.30989716 16.83005717 105.039146 18.80045714 111.16162109 20.58764648 C112.06641205 20.85343002 112.971203 21.11921356 113.90341187 21.39305115 C114.59528595 21.59334427 115.28716003 21.79363739 116 22 C116.07706265 28.8094138 116.12901688 35.61871225 116.16479492 42.4284668 C116.17973498 44.73742881 116.20009442 47.04636319 116.22631836 49.35522461 C116.54371463 78.05158171 112.79110818 106.44774146 92.01049805 127.97851562 C90.67892841 129.32423856 89.33966736 130.66233813 88 132 C87.34515625 132.72574219 86.6903125 133.45148438 86.015625 134.19921875 C80.26362134 140.45513726 73.27162087 144.74228616 66 149 C65.27409668 149.42587402 64.54819336 149.85174805 63.80029297 150.29052734 C61.54684992 151.59418408 59.27819675 152.86516884 57 154.125 C56.29431885 154.52775146 55.5886377 154.93050293 54.86157227 155.34545898 C51.77507503 157.00215743 49.63938393 157.98793615 46.1015625 158.0546875 C41.5776352 156.51632431 37.53381086 154.33637101 33.375 152 C32.48997803 151.50814209 31.60495605 151.01628418 30.69311523 150.50952148 C23.6603904 146.52852785 17.2594728 142.12323138 11 137 C10.14019531 136.33097656 9.28039062 135.66195312 8.39453125 134.97265625 C-9.06751432 120.58712115 -19.16126861 96.8641536 -21.74420166 74.871521 C-22.60382383 65.22164168 -22.29824181 55.4888267 -22.1875 45.8125 C-22.17240882 43.49024316 -22.15872835 41.16797672 -22.14648438 38.84570312 C-22.11386988 33.23025428 -22.06403044 27.61517408 -22 22 C-20.87742798 21.61038086 -20.87742798 21.61038086 -19.73217773 21.21289062 C-18.74677002 20.86419922 -17.7613623 20.51550781 -16.74609375 20.15625 C-15.28320923 19.64288086 -15.28320923 19.64288086 -13.79077148 19.11914062 C-9.3281544 17.3295652 -7.21679009 15.67633153 -4 12 C-2.68 8.04 -1.36 4.08 0 0 Z M10.69824219 23.90869141 C10.11497054 25.26519755 9.54672559 26.62835651 9 28 C6.90234375 30.2421875 6.90234375 30.2421875 4.9375 31.875 C3.96103516 32.70644531 3.96103516 32.70644531 2.96484375 33.5546875 C1.04400159 34.96763303 -0.85995457 35.96295887 -3 37 C-3.05003421 41.76479624 -3.08601444 46.5294342 -3.10986328 51.29443359 C-3.11982216 52.91002064 -3.13339418 54.52559015 -3.15087891 56.14111328 C-3.39588827 79.38817804 1.37598252 99.25365665 17.71484375 116.68359375 C23.93622264 122.99005133 30.30798681 127.61895157 38 132 C38.65355469 132.42796875 39.30710938 132.8559375 39.98046875 133.296875 C42.70820012 135.05514776 44.46561403 136.02960377 47.75 135.84765625 C51.65914178 134.82808442 54.84272676 133.10164157 58.25 131 C58.90750244 130.59845703 59.56500488 130.19691406 60.24243164 129.78320312 C66.0909187 126.11457418 71.14141836 121.91036048 76 117 C76.69480469 116.33871094 77.38960938 115.67742187 78.10546875 114.99609375 C93.14103747 99.66970165 97.20488467 77.54871615 97.56982422 56.92333984 C97.60661961 55.30727345 97.6613272 53.69151607 97.73388672 52.07666016 C98.50478727 42.81888399 98.50478727 42.81888399 95.07299805 34.69775391 C92.74404684 33.09002022 92.74404684 33.09002022 90.2824707 32.05126953 C85.2433354 29.73032434 82.35939609 24.82583943 80 20 C71.48124743 19.81448394 62.96334093 19.67242028 54.4430666 19.58550262 C50.48646426 19.54378122 46.53124541 19.48721809 42.57543945 19.39648438 C38.75628819 19.30943522 34.93846549 19.26170291 31.11839867 19.24098206 C29.66258 19.22622077 28.20683267 19.1973917 26.75158119 19.15415955 C17.44682315 18.49472382 17.44682315 18.49472382 10.69824219 23.90869141 Z " fill="#B4E138" transform="translate(209,188)"/>
<path d="M0 0 C3.45720987 2.88274901 6.76482253 5.87037481 10 9 C10.73863281 9.71285156 11.47726562 10.42570312 12.23828125 11.16015625 C19.94794195 19.14369478 34 36.21195745 34 48 C30.35859733 49.46956769 26.71115835 50.9235508 23.0625 52.375 C22.04091797 52.7875 21.01933594 53.2 19.96679688 53.625 C18.45375977 54.22441406 18.45375977 54.22441406 16.91015625 54.8359375 C15.99371338 55.20251465 15.07727051 55.5690918 14.13305664 55.94677734 C10.179999 57.27565529 6.07113091 58.09530424 2 59 C2 52.07 2 45.14 2 38 C-1.3 37.34 -4.6 36.68 -8 36 C-12.96103642 33.09298279 -16.90599072 29.13119606 -19.0625 23.75 C-20 20 -20 20 -20 16 C-51.02 16 -82.04 16 -114 16 C-114.33 18.31 -114.66 20.62 -115 23 C-117.24180477 29.10269075 -121.3253487 33.19975799 -127.12890625 36.04296875 C-130.17336721 37.23720482 -132.71546331 38 -136 38 C-136 44.93 -136 51.86 -136 59 C-146.125 56.75 -146.125 56.75 -150.91015625 54.8359375 C-151.91884766 54.43632812 -152.92753906 54.03671875 -153.96679688 53.625 C-154.98837891 53.2125 -156.00996094 52.8 -157.0625 52.375 C-158.11888672 51.95476562 -159.17527344 51.53453125 -160.26367188 51.1015625 C-162.84492694 50.07373243 -165.42354309 49.03978554 -168 48 C-158.90696261 20.99501039 -139.26716419 -0.01202629 -114 -13 C-77.35911908 -30.60774598 -31.65444915 -25.6295842 0 0 Z " fill="#545E79" transform="translate(323,172)"/>
<path d="M0 0 C2.47444679 -0.0032295 4.94889341 -0.00659469 7.42333984 -0.01008606 C12.58333781 -0.01602532 17.74331918 -0.01793158 22.90332031 -0.01733398 C28.10582993 -0.0172531 33.30825077 -0.02414369 38.51074219 -0.0378418 C142.75980278 -0.30806501 142.75980278 -0.30806501 164.75 8.16796875 C158.48151976 15.06446216 143.78850915 14.4453676 134.92578125 15.1875 C133.91866592 15.2726889 132.9115506 15.35787781 131.87391663 15.44564819 C122.1524205 16.24799734 112.43274756 16.87026548 102.6875 17.29296875 C101.25289429 17.35550842 101.25289429 17.35550842 99.78930664 17.41931152 C41.1183543 19.85200955 -18.61986148 20.07507856 -77.125 14.73046875 C-78.33857178 14.62049561 -79.55214355 14.51052246 -80.80249023 14.3972168 C-87.57828367 13.69431334 -93.81314952 12.41039629 -100.25 10.16796875 C-100.25 9.17796875 -100.25 8.18796875 -100.25 7.16796875 C-90.38108564 4.73665504 -80.76073128 3.45720888 -70.64916992 2.71484375 C-68.34527009 2.54537917 -66.04284549 2.36186078 -63.74023438 2.17578125 C-42.50705781 0.50343775 -21.29289852 0.00668915 0 0 Z " fill="#3D4460" transform="translate(224.25,433.83203125)"/>
<path d="M0 0 C3.58552881 1.63687185 4.79315055 2.68972583 7 6 C7.30078125 8.33984375 7.30078125 8.33984375 7.3125 10.9375 C7.33763672 12.21947266 7.33763672 12.21947266 7.36328125 13.52734375 C7 16 7 16 5.4609375 18.03125 C3.79605776 19.88510428 3.79605776 19.88510428 3.92578125 22.19140625 C4.11720703 23.36509766 4.11720703 23.36509766 4.3125 24.5625 C5.07017038 30.08855246 5.07148633 35.42406613 5 41 C-0.94 41 -6.88 41 -13 41 C-13.08221388 34.58731746 -12.95872129 28.52468506 -11.92578125 22.19140625 C-12.02353755 19.30502296 -13.26976462 18.25758672 -15 16 C-15.66367922 12.59864398 -15.6069482 9.40994532 -15 6 C-10.68304603 0.43340146 -6.89762916 -0.75463505 0 0 Z " fill="#232A3D" transform="translate(260,242)"/>
</svg>
